<svg width="378" height="378" viewBox="0 0 378 378" fill="none" xmlns="http://www.w3.org/2000/svg">
<circle cx="189" cy="189" r="189" fill="#D2F8C2"/>
<line x1="191.109" y1="117.281" x2="191.109" y2="210.094" stroke="#001030" stroke-width="14.3438"/>
<path fill-rule="evenodd" clip-rule="evenodd" d="M212.211 219.644C219.354 218.024 225.935 220.092 230.685 224.186C235.919 228.696 239.021 235.778 238.042 242.823L240.137 247.876L233.405 253.888C231.884 253.045 229.626 252.731 226.681 254.748C219.356 259.766 214.043 262.481 209.514 263.852C204.914 265.244 201.401 265.151 198.208 265.067L198.095 265.064C197.238 265.042 196.428 265.021 195.583 265.021C193.106 265.021 189.481 264.909 185.173 264.777L185.077 264.774C178.084 264.56 169.089 264.284 159.446 264.284V254.724H190.942C193.837 254.724 195.492 253.772 196.426 252.779C197.419 251.723 197.972 250.221 197.936 248.566C197.865 245.333 195.65 242.197 190.942 242.197C189.183 242.197 186.467 242.281 183.101 242.386L182.858 242.394C174.16 242.665 161.426 243.063 153.105 242.195C149.202 242.132 145.203 240.752 141.675 239.51L140.743 235.012L138.87 235.233C136.4 214.298 157.014 203.948 170.873 211.779C177.292 206.063 186.221 204.757 193.907 206.372C201.314 207.929 208.675 212.446 212.211 219.644ZM148.235 231.628C148.442 219.389 161.728 215.485 168.228 221.627L175.369 220.975C178.9 216.148 185.4 214.353 191.941 215.728C198.535 217.114 203.505 221.351 204.57 226.632L211.261 230.026C216.732 227.497 221.339 228.752 224.444 231.428C227.753 234.28 229.268 238.63 228.429 242.289L228.561 243.861C226.145 244.242 223.678 245.217 221.278 246.861C214.323 251.626 209.936 253.736 206.745 254.702C206.592 254.748 206.441 254.792 206.292 254.833C207.156 252.755 207.542 250.531 207.494 248.355C207.322 240.544 201.444 232.637 190.942 232.637C189.015 232.637 186.15 232.726 182.897 232.828L182.803 232.831C173.737 233.114 161.466 233.486 153.895 232.664L153.379 232.637C151.973 232.637 150.349 232.283 148.235 231.628Z" fill="#001030"/>
<path d="M189.569 289.938H212.6C221.44 289.938 229.576 286.748 236.547 283.977L236.745 283.898C243.996 281.016 249.841 278.692 255.501 278.692C256.855 278.692 258.592 279.28 260.721 280.833C262.829 282.373 264.998 284.629 267.104 287.351C268.885 289.653 270.532 292.173 271.982 294.656L277.055 294.62L280.217 289.799C278.58 286.999 276.711 284.145 274.666 281.501C272.24 278.365 269.444 275.365 266.357 273.112C263.29 270.873 259.602 269.132 255.501 269.132C247.965 269.132 240.579 272.077 234.024 274.691C233.685 274.826 233.349 274.96 233.015 275.093C228.579 276.857 224.402 278.46 220.265 279.427C214.022 282.677 208.24 284.383 201.249 284.945L189.569 289.938Z" fill="#001030"/>
<path d="M236.846 239.139C237.361 238.956 237.872 238.775 238.376 238.599C243.134 236.938 248.095 235.403 253.801 235.216C264.375 234.869 278.981 239.152 299.406 260.542L304.781 252.348C283.931 231.059 267.357 225.206 253.488 225.661C246.257 225.898 240.154 227.852 235.224 229.574C234.621 229.784 234.046 229.988 233.493 230.183C232.454 230.551 231.494 230.89 230.578 231.196C232.418 233.913 233.46 237.116 233.439 240.32C234.567 239.945 235.715 239.539 236.846 239.139Z" fill="#001030"/>
<path d="M97.2507 289.799L100.413 294.62L105.485 294.656C106.935 292.173 108.583 289.653 110.364 287.351C112.469 284.629 114.638 282.373 116.747 280.833C118.875 279.28 120.613 278.692 121.967 278.692C127.627 278.692 133.471 281.015 140.723 283.898L140.921 283.977C147.892 286.748 156.027 289.938 164.868 289.938H195.583C204 289.938 210.841 288.766 217.801 285.861C224.634 283.01 231.365 278.575 239.638 272.437C247.77 266.402 247.718 256.777 243.464 250.516C241.341 247.392 238.065 244.889 234.024 244.009C229.894 243.109 225.442 244.008 221.278 246.861C213.983 251.859 209.512 253.935 206.292 254.833C207.156 252.755 207.542 250.531 207.494 248.355C207.322 240.544 201.444 232.637 190.942 232.637C189.048 232.637 186.094 232.728 182.664 232.834C179.859 232.922 176.735 233.018 173.614 233.083C166.435 233.232 159.031 233.222 153.895 232.664L153.379 232.637C152.188 232.637 150.726 232.369 148.798 231.8C147.304 231.36 145.756 230.813 143.975 230.183C143.422 229.988 142.846 229.784 142.243 229.574C137.314 227.852 131.21 225.898 123.98 225.661C110.11 225.206 93.5372 231.059 72.6872 252.348L78.0616 260.542C98.4868 239.151 113.093 234.869 123.667 235.216C129.373 235.403 134.334 236.938 139.091 238.599C139.595 238.775 140.107 238.956 140.622 239.138C142.454 239.787 144.333 240.452 146.096 240.971C148.302 241.621 150.678 242.157 153.105 242.195C158.904 242.8 166.752 242.788 173.812 242.641C177.242 242.57 180.446 242.47 183.234 242.382L183.235 242.382C186.462 242.28 189.13 242.197 190.942 242.197C195.65 242.197 197.865 245.333 197.936 248.566C197.972 250.221 197.419 251.723 196.426 252.779C195.492 253.772 193.837 254.724 190.942 254.724H159.446V264.284C167.29 264.284 174.711 264.467 180.972 264.65C182.374 264.691 183.725 264.733 185.013 264.772C189.421 264.907 193.099 265.021 195.583 265.021C196.276 265.021 197.003 265.041 197.764 265.062C200.608 265.141 203.931 265.234 207.736 264.332C212.666 263.163 218.382 260.434 226.681 254.748C228.922 253.213 230.714 253.073 231.989 253.35C233.351 253.647 234.638 254.537 235.557 255.89C237.386 258.582 237.335 262.241 233.941 264.759C225.784 270.812 219.825 274.658 214.119 277.038C208.542 279.366 202.994 280.378 195.583 280.378H164.868C158.124 280.378 151.627 277.945 144.453 275.093C144.119 274.96 143.782 274.826 143.444 274.691C136.888 272.077 129.502 269.132 121.967 269.132C117.866 269.132 114.177 270.872 111.11 273.111C108.024 275.365 105.228 278.365 102.802 281.501C100.757 284.145 98.8872 286.999 97.2507 289.799Z" fill="#001030"/>
<path d="M132.166 173.209L138.873 179.916H145.58V79.3125H132.166V119.554C126.13 115.127 119.423 112.847 112.045 112.847C102.79 112.847 94.8755 116.066 88.3027 122.639C81.7299 129.212 78.5106 137.126 78.5106 146.382C78.5106 155.637 81.7299 163.551 88.3027 170.124C94.8755 176.697 102.79 179.916 112.045 179.916C119.557 179.916 126.264 177.636 132.166 173.209ZM97.8266 160.6C93.9366 156.71 91.9245 151.881 91.9245 146.382C91.9245 140.882 93.9366 136.053 97.8266 132.163C101.717 128.273 106.546 126.261 112.045 126.261C117.545 126.261 122.374 128.273 126.264 132.163C130.154 136.053 132.166 140.882 132.166 146.382C132.166 151.881 130.154 156.71 126.264 160.6C122.374 164.49 117.545 166.503 112.045 166.503C106.546 166.503 101.717 164.49 97.8266 160.6Z" fill="#001030"/>
<path d="M279.666 179.916C279.666 185.416 277.654 190.245 273.764 194.135C269.874 198.025 265.045 200.037 259.545 200.037C254.046 200.037 249.217 198.025 245.327 194.135L235.803 203.659C242.376 210.232 250.29 213.451 259.545 213.451C268.801 213.451 276.715 210.232 283.288 203.659C289.861 196.952 293.08 189.038 293.08 179.916V112.847H286.373L279.666 119.554C273.764 115.127 267.057 112.847 259.545 112.847C250.29 112.847 242.376 116.066 235.803 122.639C229.23 129.212 226.011 137.126 226.011 146.382C226.011 155.637 229.23 163.551 235.803 170.124C242.376 176.697 250.29 179.916 259.545 179.916C266.923 179.916 273.63 177.636 279.666 173.209V179.916ZM245.327 160.6C241.437 156.71 239.424 151.881 239.424 146.382C239.424 140.882 241.437 136.053 245.327 132.163C249.217 128.273 254.046 126.261 259.545 126.261C265.045 126.261 269.874 128.273 273.764 132.163C277.654 136.053 279.666 140.882 279.666 146.382C279.666 151.881 277.654 156.71 273.764 160.6C269.874 164.49 265.045 166.503 259.545 166.503C254.046 166.503 249.217 164.49 245.327 160.6Z" fill="#001030"/>
<path fill-rule="evenodd" clip-rule="evenodd" d="M164.718 91.4212C164.508 93.3927 164.502 96.135 164.502 100.311C164.502 105.029 166.258 107.555 168.184 109.03C170.318 110.666 173.124 111.339 175.331 111.339L186.16 111.339L186.16 100.311C186.16 99.1962 185.465 96.0812 183.506 93.2976C181.684 90.7082 179.104 88.8372 175.331 88.8372C171.307 88.8372 168.711 88.8449 166.856 89.0595C165.779 89.1841 165.3 89.348 165.125 89.4244C165.045 89.6044 164.855 90.1431 164.718 91.4212ZM165.042 89.4671C165.041 89.467 165.045 89.4645 165.053 89.46C165.046 89.465 165.042 89.4672 165.042 89.4671ZM175.331 120.9C171.537 120.9 166.538 119.814 162.368 116.618C157.989 113.262 154.941 107.884 154.941 100.311C154.941 100.221 154.941 100.132 154.941 100.044C154.941 96.2082 154.941 92.9479 155.212 90.4068C155.484 87.8591 156.108 84.9814 158.225 82.7777C160.379 80.5344 163.239 79.8539 165.757 79.5625C168.229 79.2765 171.388 79.2767 175.049 79.2769C175.142 79.2769 175.236 79.2769 175.331 79.2769C182.971 79.2769 188.195 83.3494 191.324 87.7951C191.337 87.813 191.35 87.8309 191.362 87.8488C191.375 87.8309 191.387 87.813 191.4 87.7951C194.529 83.3494 199.754 79.2769 207.393 79.2769L207.676 79.2769C211.336 79.2767 214.495 79.2765 216.967 79.5625C219.486 79.8539 222.345 80.5344 224.499 82.7777C226.616 84.9814 227.24 87.8591 227.512 90.4068C227.783 92.9479 227.783 96.2081 227.783 100.043L227.783 100.311C227.783 107.884 224.735 113.262 220.356 116.618C216.186 119.814 211.187 120.9 207.393 120.9H175.331ZM196.564 111.339L207.393 111.339C209.6 111.339 212.406 110.666 214.541 109.03C216.466 107.555 218.223 105.029 218.223 100.311C218.223 96.135 218.216 93.3927 218.006 91.4212C217.869 90.1431 217.679 89.6044 217.599 89.4244C217.424 89.348 216.945 89.184 215.868 89.0595C214.013 88.8449 211.417 88.8372 207.393 88.8372C203.62 88.8372 201.04 90.7082 199.218 93.2976C197.259 96.0812 196.564 99.1962 196.564 100.311L196.564 111.339ZM217.682 89.4671C217.682 89.4672 217.678 89.465 217.671 89.4601C217.679 89.4646 217.683 89.467 217.682 89.4671Z" fill="#001030"/>
</svg>
